<svg width="134" height="134" viewBox="0 0 134 134" fill="none" xmlns="http://www.w3.org/2000/svg">
<path d="M66.9988 127.328C100.317 127.328 127.328 100.317 127.328 66.9989C127.328 33.6802 100.317 6.67012 66.9988 6.67012C33.6802 6.67012 6.6701 33.6802 6.6701 66.9989C6.6701 100.317 33.6802 127.328 66.9988 127.328Z" fill="#EDEDED"/>
<path d="M66.9988 114.434C93.1966 114.434 114.434 93.1966 114.434 66.9988C114.434 40.801 93.1966 19.5636 66.9988 19.5636C40.8011 19.5636 19.5636 40.801 19.5636 66.9988C19.5636 93.1966 40.8011 114.434 66.9988 114.434Z" stroke="#FEFCF8" stroke-width="4" stroke-miterlimit="10"/>
<path d="M73.3735 50.3307C73.3735 46.6293 71.3463 44.7793 67.292 44.7809C66.0159 44.7691 64.7441 44.9281 63.5102 45.2536C62.3331 45.5782 61.6437 45.9722 61.442 46.4354C61.234 46.9082 61.1324 47.6173 61.1324 48.5627V53.2308L52.1507 52.6139V40.5501C57.7903 37.8477 63.1801 36.4973 68.3201 36.4988C73.4602 36.5004 77.2932 37.7035 79.8191 40.1081C82.3403 42.5158 83.6009 45.6444 83.6009 49.494C83.6009 53.3435 82.8217 56.3689 81.2633 58.5702C79.5938 60.884 77.5551 62.9074 75.229 64.5596C72.7614 66.3544 71.2037 67.6622 70.5561 68.4832C69.9085 69.3041 69.5532 70.5372 69.4901 72.1822L69.0505 81.873H60.5888L60.1468 72.6242V71.3006C60.1468 68.7148 60.6195 66.5734 61.5649 64.8692C62.6207 62.9894 64.9402 60.7565 68.5234 58.1708C70.4631 56.762 71.5796 55.8087 71.8726 55.3108C72.1657 54.8121 72.4612 54.3252 72.7543 53.8548C73.1655 52.9732 73.3735 51.8008 73.3735 50.3307ZM64.8645 99.2337C63.0146 99.2337 61.5453 98.6759 60.4564 97.5603C59.922 97.014 59.5026 96.366 59.2233 95.6547C58.944 94.9434 58.8103 94.1832 58.8303 93.4192C58.8147 92.6442 58.9552 91.874 59.2435 91.1545C59.5318 90.4349 59.962 89.7807 60.5084 89.2309C61.624 88.0869 63.0777 87.5149 64.8693 87.5149C66.6609 87.5149 68.1153 88.0586 69.2325 89.1458C69.7817 89.6747 70.2145 90.3124 70.5031 91.0182C70.7916 91.7239 70.9297 92.4822 70.9083 93.2443C70.9381 94.8121 70.3527 96.3292 69.2774 97.4705C68.1886 98.6475 66.7192 99.2353 64.8693 99.2337H64.8645Z" fill="#FDB714"/>
</svg>
