<svg width="140" height="140" viewBox="0 0 140 140" fill="none" xmlns="http://www.w3.org/2000/svg">
<path d="M69.9988 134.182C105.446 134.182 134.182 105.446 134.182 69.9988C134.182 34.5513 105.446 5.81554 69.9988 5.81554C34.5514 5.81554 5.81555 34.5513 5.81555 69.9988C5.81555 105.446 34.5514 134.182 69.9988 134.182Z" fill="#F4F4F5"/>
<path d="M69.9987 115.582C95.1738 115.582 115.582 95.1738 115.582 69.9988C115.582 44.8237 95.1738 24.4154 69.9987 24.4154C44.8237 24.4154 24.4153 44.8237 24.4153 69.9988C24.4153 95.1738 44.8237 115.582 69.9987 115.582Z" fill="#F0EFEF"/>
<path d="M69.9988 117.708C43.6918 117.708 22.2916 96.3057 22.2916 69.9988C22.2916 43.6918 43.6918 22.2916 69.9988 22.2916C96.3057 22.2916 117.708 43.6918 117.708 69.9988C117.708 96.3057 96.3082 117.708 69.9988 117.708ZM69.9988 26.544C46.0452 26.544 26.5366 46.0378 26.5366 70.0062C26.5366 93.9746 46.0304 113.468 69.9988 113.468C93.9672 113.468 113.461 93.9746 113.461 70.0062C113.461 46.0378 93.9622 26.544 69.9988 26.544Z" fill="#EBECED"/>
<path d="M71.0038 34.0635C75.5698 33.3572 80.3877 33.903 84.8475 35.4785C89.3575 37.0875 93.4539 39.6782 96.8405 43.0636C100.227 46.4489 102.819 50.5443 104.43 55.0537C106.008 59.5234 106.551 64.3339 105.843 68.8999C105.129 64.3438 103.879 60.0346 101.958 56.0785C98.1468 48.1518 91.7533 41.7566 83.8276 37.943C79.8715 36.0193 75.5648 34.7722 71.0038 34.0635Z" fill="#F4F4F5"/>
<path d="M76.2588 53.6288C76.2588 49.9971 74.2684 48.1804 70.2877 48.1788C69.0317 48.1666 67.7799 48.3245 66.5662 48.648C65.4138 48.9641 64.7364 49.3534 64.5339 49.816C64.3289 50.2778 64.2301 50.9717 64.2301 51.8928V56.4786L55.4044 55.8711V44.0178C60.9425 41.3656 66.2353 40.0395 71.2829 40.0395C76.3304 40.0395 80.0947 41.2207 82.5756 43.5832C85.0549 45.9489 86.2954 49.0217 86.2971 52.8016C86.2987 56.5815 85.5332 59.5522 84.0005 61.7138C82.3619 63.9872 80.3595 65.9746 78.0738 67.596C75.6521 69.3559 74.1227 70.64 73.4856 71.4483C72.8485 72.2566 72.5036 73.4683 72.4509 75.0833L72.0163 84.5981H63.7116L63.2794 75.5155V74.2166C63.2794 71.678 63.742 69.5724 64.6672 67.8997C65.7044 66.0542 67.982 63.8622 71.5002 61.3236C73.4066 59.9374 74.503 59.0007 74.7895 58.5134C75.0784 58.0195 75.3673 57.5454 75.6562 57.0836C76.0588 56.2242 76.2588 55.0685 76.2588 53.6288ZM67.9096 101.654C66.0987 101.654 64.6565 101.106 63.5832 100.01C63.0575 99.4743 62.6449 98.8384 62.37 98.1401C62.0951 97.4418 61.9635 96.6954 61.983 95.9452C61.9666 95.1841 62.1038 94.4275 62.3864 93.7207C62.669 93.0138 63.0911 92.3711 63.6276 91.8311C64.7224 90.7001 66.1497 90.1346 67.9096 90.1346C69.6703 90.1346 71.0952 90.6704 72.1941 91.7372C72.7332 92.2568 73.1579 92.8832 73.4411 93.5763C73.7243 94.2694 73.8597 95.014 73.8387 95.7624C73.8668 97.3023 73.2917 98.7921 72.2361 99.9135C71.1627 101.074 69.7205 101.654 67.9096 101.654Z" fill="#FDB714"/>
</svg>
