<?xml version="1.0" standalone="no"?>
<!DOCTYPE svg PUBLIC "-//W3C//DTD SVG 20010904//EN"
 "http://www.w3.org/TR/2001/REC-SVG-20010904/DTD/svg10.dtd">
<svg version="1.0" xmlns="http://www.w3.org/2000/svg"
 width="700.000000pt" height="700.000000pt" viewBox="0 0 700.000000 700.000000"
 preserveAspectRatio="xMidYMid meet">
<metadata>
Created by potrace 1.14, written by Peter Selinger 2001-2017
</metadata>
<g transform="translate(0.000000,700.000000) scale(0.100000,-0.100000)"
fill="#000000" stroke="none">
<path d="M3309 6706 c-2 -2 -40 -6 -84 -10 -109 -8 -151 -14 -310 -40 -179
-31 -453 -111 -620 -181 -16 -7 -45 -19 -64 -26 -83 -33 -326 -161 -431 -228
-100 -64 -285 -193 -300 -210 -3 -3 -25 -22 -50 -42 -69 -56 -106 -90 -223
-207 -482 -477 -802 -1114 -902 -1797 -4 -22 -8 -51 -10 -64 -27 -159 -27
-583 0 -804 8 -70 38 -238 52 -292 8 -33 16 -67 18 -75 50 -246 215 -643 379
-908 52 -83 161 -241 187 -271 6 -7 28 -34 47 -60 107 -141 396 -427 516 -511
12 -8 27 -20 34 -27 8 -7 55 -42 105 -77 470 -327 972 -512 1552 -572 92 -10
457 -11 566 -2 217 18 423 57 639 122 874 260 1588 867 1979 1681 59 123 81
172 81 178 0 2 8 22 17 43 9 22 17 42 17 46 1 3 4 10 9 14 4 4 7 17 7 29 0 11
4 25 9 30 20 21 116 389 136 520 3 22 10 67 15 100 18 112 25 239 25 440 -1
237 -8 329 -41 525 -23 137 -25 148 -58 275 -151 589 -465 1115 -916 1537
-139 130 -191 173 -329 271 -204 147 -395 251 -656 362 -138 59 -420 144 -560
169 -16 3 -57 11 -90 17 -33 6 -69 12 -80 14 -28 4 -133 17 -175 22 -45 5
-486 13 -491 9z"/>
</g>
</svg>
